<svg width="127" height="24" viewBox="0 0 127 24" fill="none" xmlns="http://www.w3.org/2000/svg">
<path d="M3.49023 4.29785H0.765625C0.804688 3.95605 0.897461 3.63379 1.04395 3.33105C1.2002 3.02832 1.39062 2.76465 1.61523 2.54004C1.84961 2.30566 2.11328 2.125 2.40625 1.99805C2.69922 1.86133 3.00684 1.79297 3.3291 1.79297H6.44922L11.1367 21.7734L15.6924 1.79297H19.2373L13.4951 24H8.77832L3.49023 4.29785ZM24.9795 5.11816C24.6377 5.11816 24.3154 5.05469 24.0127 4.92773C23.7197 4.80078 23.4609 4.625 23.2363 4.40039C23.0117 4.17578 22.8359 3.91699 22.709 3.62402C22.582 3.32129 22.5186 2.99902 22.5186 2.65723C22.5186 2.31543 22.582 1.99805 22.709 1.70508C22.8359 1.40234 23.0117 1.13867 23.2363 0.914062C23.4609 0.689453 23.7197 0.513672 24.0127 0.386719C24.3154 0.25 24.6377 0.181641 24.9795 0.181641C25.3213 0.181641 25.6387 0.25 25.9316 0.386719C26.2344 0.513672 26.498 0.689453 26.7227 0.914062C26.9473 1.13867 27.123 1.40234 27.25 1.70508C27.3867 1.99805 27.4551 2.31543 27.4551 2.65723C27.4551 2.99902 27.3867 3.32129 27.25 3.62402C27.123 3.91699 26.9473 4.17578 26.7227 4.40039C26.498 4.625 26.2344 4.80078 25.9316 4.92773C25.6289 5.05469 25.3115 5.11816 24.9795 5.11816ZM23.2656 8.66309H26.7666V21.4951H29.9014C29.8721 21.8369 29.7793 22.1641 29.623 22.4766C29.4766 22.7793 29.2861 23.043 29.0518 23.2676C28.8271 23.4922 28.5684 23.6729 28.2754 23.8096C27.9824 23.9365 27.6748 24 27.3525 24H26.0635C25.6826 24 25.3213 23.9023 24.9795 23.707C24.6377 23.5117 24.3398 23.248 24.0859 22.916C23.832 22.5742 23.6318 22.1787 23.4854 21.7295C23.3389 21.2803 23.2656 20.7969 23.2656 20.2793V8.66309ZM32.4062 12.3838C32.4062 11.8662 32.4795 11.3828 32.626 10.9336C32.7725 10.4844 32.9678 10.0938 33.2119 9.76172C33.4658 9.41992 33.7637 9.15137 34.1055 8.95605C34.4473 8.76074 34.8086 8.66309 35.1895 8.66309H41.957V0.708984H45.4434V21.4951H48.2266C48.1875 21.8369 48.0898 22.1641 47.9336 22.4766C47.7871 22.7793 47.5967 23.043 47.3623 23.2676C47.1377 23.4922 46.8789 23.6729 46.5859 23.8096C46.293 23.9365 45.9854 24 45.6631 24H41.957V22.4033C41.6934 22.9014 41.3564 23.292 40.9463 23.5752C40.5361 23.8584 40.1016 24 39.6426 24H35.1895C34.8086 24 34.4473 23.9023 34.1055 23.707C33.7637 23.5117 33.4658 23.248 33.2119 22.916C32.9678 22.5742 32.7725 22.1787 32.626 21.7295C32.4795 21.2803 32.4062 20.7969 32.4062 20.2793V12.3838ZM41.957 21.4951V11.168H35.8926V21.4951H41.957ZM51.0977 12.3838C51.0977 11.8662 51.1709 11.3828 51.3174 10.9336C51.4639 10.4746 51.6592 10.0791 51.9033 9.74707C52.1572 9.40527 52.4502 9.1416 52.7822 8.95605C53.1143 8.76074 53.4707 8.66309 53.8516 8.66309H66.127C66.0879 9.00488 65.9902 9.33203 65.834 9.64453C65.6875 9.94727 65.4971 10.2109 65.2627 10.4355C65.0381 10.6602 64.7793 10.8408 64.4863 10.9775C64.1934 11.1045 63.8857 11.168 63.5635 11.168H62.6406C62.8262 11.3047 63.0068 11.4805 63.1826 11.6953C63.3682 11.9102 63.5293 12.1592 63.666 12.4424C63.8125 12.7256 63.9248 13.0381 64.0029 13.3799C64.0908 13.7119 64.1348 14.0732 64.1348 14.4639V20.3086C64.1348 20.8164 64.0615 21.2949 63.915 21.7441C63.7686 22.1934 63.5684 22.584 63.3145 22.916C63.0605 23.248 62.7627 23.5117 62.4209 23.707C62.0889 23.9023 61.7324 24 61.3516 24H53.8516C53.4707 24 53.1143 23.9023 52.7822 23.707C52.4502 23.5117 52.1572 23.248 51.9033 22.916C51.6592 22.584 51.4639 22.1934 51.3174 21.7441C51.1709 21.2949 51.0977 20.8164 51.0977 20.3086V12.3838ZM60.6338 21.4951V11.168H54.5986V21.4951H60.6338ZM67.709 24C67.7383 23.668 67.8262 23.3506 67.9727 23.0479C68.1289 22.7354 68.3193 22.4668 68.5439 22.2422C68.7783 22.0176 69.042 21.8369 69.335 21.7002C69.6279 21.5635 69.9404 21.4951 70.2725 21.4951H70.8877V5.51367C70.8877 4.99609 70.9609 4.5127 71.1074 4.06348C71.2539 3.60449 71.4492 3.20898 71.6934 2.87695C71.9473 2.53516 72.2402 2.27148 72.5723 2.08594C72.9141 1.89063 73.2754 1.79297 73.6562 1.79297H78.3438V4.12207H74.374V17.9062C74.374 18.4141 74.3008 18.8779 74.1543 19.2979C74.0176 19.7178 73.8418 20.084 73.627 20.3965C73.4219 20.709 73.1924 20.9629 72.9385 21.1582C72.6846 21.3438 72.4453 21.4561 72.2207 21.4951H80.8047V18.2725H83.8955V21.5098C83.8955 21.8613 83.8223 22.1885 83.6758 22.4912C83.5293 22.7939 83.334 23.0576 83.0898 23.2822C82.8555 23.5068 82.582 23.6826 82.2695 23.8096C81.9668 23.9365 81.6543 24 81.332 24H67.709ZM88.8174 5.11816C88.4756 5.11816 88.1533 5.05469 87.8506 4.92773C87.5576 4.80078 87.2988 4.625 87.0742 4.40039C86.8496 4.17578 86.6738 3.91699 86.5469 3.62402C86.4199 3.32129 86.3564 2.99902 86.3564 2.65723C86.3564 2.31543 86.4199 1.99805 86.5469 1.70508C86.6738 1.40234 86.8496 1.13867 87.0742 0.914062C87.2988 0.689453 87.5576 0.513672 87.8506 0.386719C88.1533 0.25 88.4756 0.181641 88.8174 0.181641C89.1592 0.181641 89.4766 0.25 89.7695 0.386719C90.0723 0.513672 90.3359 0.689453 90.5605 0.914062C90.7852 1.13867 90.9609 1.40234 91.0879 1.70508C91.2246 1.99805 91.293 2.31543 91.293 2.65723C91.293 2.99902 91.2246 3.32129 91.0879 3.62402C90.9609 3.91699 90.7852 4.17578 90.5605 4.40039C90.3359 4.625 90.0723 4.80078 89.7695 4.92773C89.4668 5.05469 89.1494 5.11816 88.8174 5.11816ZM87.1035 8.66309H90.6045V21.4951H93.7393C93.71 21.8369 93.6172 22.1641 93.4609 22.4766C93.3145 22.7793 93.124 23.043 92.8896 23.2676C92.665 23.4922 92.4062 23.6729 92.1133 23.8096C91.8203 23.9365 91.5127 24 91.1904 24H89.9014C89.5205 24 89.1592 23.9023 88.8174 23.707C88.4756 23.5117 88.1777 23.248 87.9238 22.916C87.6699 22.5742 87.4697 22.1787 87.3232 21.7295C87.1768 21.2803 87.1035 20.7969 87.1035 20.2793V8.66309ZM94.0322 8.66309H97.5918L101.591 21.5391L105.59 8.66309H109.135L103.817 24H99.335L94.0322 8.66309ZM112.416 12.3838C112.416 11.8662 112.489 11.3828 112.636 10.9336C112.782 10.4844 112.978 10.0938 113.222 9.76172C113.476 9.41992 113.773 9.15137 114.115 8.95605C114.457 8.76074 114.818 8.66309 115.199 8.66309H122.978C123.358 8.66309 123.715 8.76074 124.047 8.95605C124.389 9.15137 124.687 9.41992 124.94 9.76172C125.194 10.0938 125.395 10.4844 125.541 10.9336C125.688 11.3828 125.761 11.8662 125.761 12.3838V17.2617H115.917V21.4951H126.669C126.63 21.8369 126.532 22.1641 126.376 22.4766C126.229 22.7793 126.039 23.043 125.805 23.2676C125.58 23.4922 125.321 23.6729 125.028 23.8096C124.735 23.9365 124.428 24 124.105 24H115.199C114.818 24 114.457 23.9023 114.115 23.707C113.773 23.5117 113.476 23.248 113.222 22.916C112.978 22.5742 112.782 22.1787 112.636 21.7295C112.489 21.2803 112.416 20.7969 112.416 20.2793V12.3838ZM122.26 15.2109V11.168H115.917V15.2109H122.26Z" fill="#15FFAB"/>
</svg>
